<svg width="53" height="60" viewBox="0 0 53 60" fill="none" xmlns="http://www.w3.org/2000/svg">
<path d="M1.36252 1.03061H4.77653V5.63061H1.21252V1.18061H1.36252V1.03061Z" stroke="black"/>
<path d="M8.4625 1.18062V1.25861V2.04162V5.63062H8.4609H8.3625H4.8985V1.03062L8.2125 1.03052V1.18062H8.4625Z" stroke="black"/>
<path d="M9.48454 2.10262H8.58453V5.60561H11.7125V6.45562H12.6625V1.03052H9.48454V1.10561V2.10262Z" stroke="black"/>
<path d="M1.36252 8.03062H1.21252V5.75262H8.46252V6.60562H10.9625V29.7696H8.61252V29.6306H8.06052V32.7896H1.21252V30.0306H1.36252V29.6306H1.21252V22.8306H1.36252V22.4306H1.21252V15.6306H1.36252V15.2306H1.21252V8.38062H1.36252V8.03062Z" stroke="black"/>
<path d="M8.61252 15.2306H8.21252V15.6306H8.61252V15.2306Z" stroke="black"/>
<path d="M8.61252 22.4306H8.21252V22.8306H8.61252V22.4306Z" stroke="black"/>
<path d="M8.61252 8.03064H8.21252V8.43064H8.61252V8.03064Z" stroke="black"/>
<path d="M1.36252 36.8306V36.9696H5.74052V32.9116H1.21252V36.8306H1.36252Z" stroke="black"/>
<path d="M8.61249 29.8916H11.0235H11.3925V33.9366H10.9625V35.0306H11.7655V36.8306H8.61249H8.33449V35.5811H8.61249V35.4061H8.27349H8.1825V32.8506V30.1986H8.61249V29.8916Z" stroke="black"/>
<path d="M11.6875 38.5566H8.47351V41.6586H11.6875V39.7072V39.4056V38.5566Z" stroke="black"/>
<path d="M15.6625 39.7056V41.5806H14.0125H11.8095V39.7056H12.3725V39.3056H11.8875V38.2416V37.0306H13.9625V39.3056H13.7725V39.7056H14.0625H14.1625H15.6625Z" stroke="black"/>
<path d="M15.6625 37.2306V39.5836H14.1625V39.5056V37.0306H15.4125V37.2306H15.6625Z" stroke="black"/>
<path d="M1.36252 51.2306H1.21252V50.3526H5.74052V53.7086H4.77353H1.21252V51.6306H1.36252V51.2306Z" stroke="black"/>
<path d="M1.36252 58.4806V58.6306H4.71252V53.8306H1.21252V58.4806H1.36252Z" stroke="black"/>
<path d="M9.42255 58.6306H13.8719V55.1526H12.0102H9.42255V58.6306Z" stroke="black"/>
<path d="M13.8719 55.0306V52.8006V52.7526H12.0712V55.0306H13.8719Z" stroke="black"/>
<path d="M42.2125 51.6431H51.4625V51.6306H51.6125V58.4806H51.4625V58.4556H44.6125V58.4806H44.2125V58.4556H40.1935V51.5818H40.2125H40.3125V51.3318H41.8122V51.4306L41.8125 51.6306L42.2125 51.6431Z" stroke="black"/>
<path d="M42.2125 51.2306H41.9342L41.9341 45.7087H40.1345V44.4307L41.8125 44.4306H42.2125H44.5515H51.4625H51.6125V51.2306H51.4625V51.2181H42.2125V51.2306Z" stroke="black"/>
<path d="M42.2125 44.0306V44.3086H44.4905V40.7056H40.1345V44.3087L41.8125 44.3086V44.0306H42.2125Z" stroke="black"/>
<path d="M41.0015 38.3026H40.1345V40.5836H44.4905V38.3026H44.1525H41.0015Z" stroke="black"/>
<path d="M51.6125 30.0306V32.5866H46.7625V29.7526H47.0235H51.4625V30.0306H51.6125Z" stroke="black"/>
<path d="M51.6125 29.6306V27.3526H47.0845V29.6306H51.4625H51.6125Z" stroke="black"/>
<path d="M44.6125 36.8306V44.3086H51.4625V44.0306H51.6125V37.2306H51.4625V36.8306H51.6125V32.7086H46.6405V29.7526H44.6125V30.0306H44.2125V29.6306H46.9625V27.2306H51.6125V22.8306H51.4625V22.4306H51.6125V15.6306H51.4625V15.2306H51.6125V8.43061H51.4625V8.03061H51.6125V5.82061H51.2725V1.03061H47.0785V5.68061H40.8735V8.18061H41.8625L41.8656 34.9696L41.866 37.0556H44.0925V36.8306H44.6125Z" stroke="black"/>
<path d="M44.6125 15.2306V15.6306H44.2125V15.2306H44.6125Z" stroke="black"/>
<path d="M44.6125 22.4306V22.8306H44.2125V22.4306H44.6125Z" stroke="black"/>
<path d="M49.7125 2.48059H50.4625V2.73059H49.7125V2.48059Z" stroke="black"/>
<path d="M44.6125 8.03061V8.43061H44.2125V8.03061H44.6125Z" stroke="black"/>
<path d="M44.4735 2.23061V1.03061H46.9565V5.55861H46.9175H44.4735V2.98061H44.5375V2.23061H44.4735Z" stroke="black"/>
<path d="M44.3515 2.98061V5.55861H40.8369V1.03061H44.3515V2.23061H44.2875V2.98061H44.3515Z" stroke="black"/>
<path d="M29.8125 8.08059V8.23059H23.0125V8.08059H22.6125V8.23059H15.9525V8.17059H11.0845V6.60559H40.6235V8.18059H37.3625V8.08059H37.0625V8.18059H36.8525V8.23059H30.2125V8.08059H29.8125Z" stroke="black"/>
<path d="M37.2125 8.40061V10.5696H41.7405V8.30261H40.7485H37.3625H37.2125V8.40061Z" stroke="black"/>
<path d="M37.2125 10.6916V12.9696H41.7405V10.6916H37.2125Z" stroke="black"/>
<path d="M37.3625 15.2306V15.3696H41.7405V13.0916H37.2125V15.2306H37.3625Z" stroke="black"/>
<path d="M37.3625 15.4916H41.7405V17.7696H37.2125V15.6306H37.3625V15.4916Z" stroke="black"/>
<path d="M37.2125 17.8916V20.1696H41.7405V17.8916H37.2125Z" stroke="black"/>
<path d="M37.3625 22.4306V22.5696H41.7405V20.2916H37.2125V22.4306H37.3625Z" stroke="black"/>
<path d="M37.3625 22.6916H41.7405V24.9696H37.2125V22.8306H37.3625V22.6916Z" stroke="black"/>
<path d="M37.2125 29.6806V29.8306H37.0625V29.6806H37.2125ZM37.2125 29.6806H37.3625V29.7696H37.3655H40.9936H41.7405V25.0916H37.2125V29.6806Z" stroke="black"/>
<path d="M40.9186 29.8916H37.2735V32.2697V34.7321H41.7435L41.742 31.7807H41.6112L40.9186 31.7808V29.8916Z" stroke="black"/>
<path d="M30.2125 29.8306H35.4905V29.9056V32.2696V34.3586H30.0735V29.9806H30.2125V29.8306Z" stroke="black"/>
<path d="M29.9515 29.9806V34.3586H26.4735V29.8306H29.8125V29.9806H29.9515Z" stroke="black"/>
<path d="M23.0125 29.8306H26.3515V34.3586H22.8735V29.9806H23.0125V29.8306Z" stroke="black"/>
<path d="M22.7515 29.9806V34.3586H17.8907V32.6916V29.8306H22.6125V29.9806H22.7515Z" stroke="black"/>
<path d="M17.7687 29.8306H16.2687V29.8806V32.6306H17.7687V29.8306Z" stroke="black"/>
<path d="M11.5144 33.9365H11.8264H12.9264H15.7776H16.1466L16.1467 32.6917L16.1468 30.0057H15.7826H15.7626H15.4626L11.5146 30.0055L11.5144 33.9365Z" stroke="black"/>
<path d="M15.4125 51.6306V43.5344H13.9125V41.7806H8.35152V37.2306H8.21252V35.4936H8.06052V32.9116H5.86252V37.0916H1.36252V37.2306H1.21252V44.0306H1.36252V44.4306H1.21252V50.2306H5.86252V53.8306H4.83452V58.6306H8.21252V58.4806H8.61252V58.6306H9.30053V55.0306H11.9492V52.7526H8.61252V52.6306H15.4125V51.6306Z" stroke="black"/>
<path d="M8.61252 51.2306V51.6306H8.21252V51.2306H8.61252Z" stroke="black"/>
<path d="M8.61252 44.0306V44.4306H8.21252V44.0306H8.61252Z" stroke="black"/>
<path d="M15.7626 29.7556V29.6806H15.6125V29.7556H15.7626Z" stroke="black"/>
<path d="M11.0845 27.4916H15.6125V29.6806H15.4625V29.7556H11.4535V29.7696H11.3909H11.0845" stroke="black"/>
<path d="M15.6125 27.3696V25.0916H11.0845V27.3696H15.6125Z" stroke="black"/>
<path d="M15.6125 22.8306V24.9696H11.0845V22.6916H15.4625V22.8306H15.6125Z" stroke="black"/>
<path d="M15.4625 22.5696H11.0845V19.4526H15.6125V22.4306H15.4625V22.5696Z" stroke="black"/>
<path d="M15.4625 15.3696H11.0845V13.0916H15.6125V15.2306H15.4625V15.3696Z" stroke="black"/>
<path d="M15.6125 12.9696V10.6916H11.0845V12.9696H15.6125Z" stroke="black"/>
<path d="M15.6125 8.4006V8.2926H11.0845V10.5696H15.6125V8.4006Z" stroke="black"/>
<path d="M22.8125 1.18061H22.6125V1.3306H21.4645V1.0303L16.8375 1.03041V1.3306H15.7125V4.53061V6.48361H21.2155V5.63061H21.8905V3.6366H22.8125V1.18061Z" stroke="black"/>
<path d="M26.4115 1.03061H22.9345V1.18061V3.69761V5.69161V6.48361H26.4115V1.03061Z" stroke="black"/>
<path d="M29.9515 2.98061V6.48361H26.5335V1.03061H29.9515V2.23061H29.8875V2.98061H29.9515Z" stroke="black"/>
<path d="M30.0735 2.23061V1.03061H33.5515V6.48361H30.0735V2.98061H30.1375V2.23061H30.0735Z" stroke="black"/>
<path d="M37.1515 2.98061V6.48361H33.6735V1.03061H37.1515V2.23061H37.0875V2.98061H37.1515Z" stroke="black"/>
<path d="M37.2735 2.23061V1.03061H40.7149V5.61961V5.62961H39.1929V6.48361H37.2735V2.98061H37.3375V2.23061H37.2735Z" stroke="black"/>
<path d="M35.6125 32.2086H37.1515V29.9836V29.9806H37.0625H37.0425L35.6125 29.9807V32.2086Z" stroke="black"/>
<path d="M21.3375 6.48362H22.6125V5.75262H21.9515H21.3375V6.48362Z" stroke="black"/>
<path d="M15.6125 15.6306V19.3306H11.0845V15.4916H15.4625V15.6306H15.6125Z" stroke="black"/>
</svg>
