<svg width="57" height="61" viewBox="0 0 57 61" fill="none" xmlns="http://www.w3.org/2000/svg">
<path d="M53.3142 1.94061H33.0612V3.98061H32.9562V9.74562H44.683L53.3142 1.94061Z" stroke="black"/>
<path d="M34.1375 3.23062V3.98062H33.8875V3.23062H34.1375Z" stroke="black"/>
<path d="M48.5375 3.23062V3.98062H48.2875V3.23062H48.5375Z" stroke="black"/>
<path d="M41.3375 3.23062V3.98062H41.0875V3.23062H41.3375Z" stroke="black"/>
<path d="M40.9625 9.23062C40.9625 9.29693 40.9888 9.36051 41.0357 9.4074C41.0826 9.45428 41.1462 9.48062 41.2125 9.48062C41.2788 9.48062 41.3424 9.45428 41.3892 9.4074C41.4361 9.36051 41.4625 9.29693 41.4625 9.23062C41.4625 9.16432 41.4361 9.10073 41.3892 9.05384C41.3424 9.00696 41.2788 8.98062 41.2125 8.98062C41.1462 8.98062 41.0826 9.00696 41.0357 9.05384C40.9888 9.10073 40.9625 9.16432 40.9625 9.23062Z" stroke="black"/>
<path d="M34.0125 9.48062C34.0788 9.48062 34.1424 9.45428 34.1893 9.4074C34.2361 9.36051 34.2625 9.29693 34.2625 9.23062C34.2625 9.16432 34.2361 9.10073 34.1893 9.05384C34.1424 9.00696 34.0788 8.98062 34.0125 8.98062C33.9462 8.98062 33.8826 9.00696 33.8357 9.05384C33.7888 9.10073 33.7625 9.16432 33.7625 9.23062C33.7625 9.29693 33.7888 9.36051 33.8357 9.4074C33.8826 9.45428 33.9462 9.48062 34.0125 9.48062Z" stroke="black"/>
<path d="M54.28 3.48061L55.8675 2.0451V8.93061H55.7825H55.4625H48.6125H48.4344H48.253L53.8637 3.85701L54.0035 3.73061H54.4625V3.48061H54.28Z" stroke="black"/>
<path d="M12.6125 2.88463H13.8861V2.08063H12.6125V2.18063V2.88463Z" stroke="black"/>
<path d="M5.36246 9.03061V9.16961H10.2905V7.46961V2.03061H5.36246V2.18061H5.21246V9.03061H5.36246Z" stroke="black"/>
<path d="M10.4125 2.03061V7.40861H14.2155V6.48361H15.1405V2.0806H14.0361V3.03461H12.4625V2.18061H12.2125V2.03061H10.4125Z" stroke="black"/>
<path d="M15.1405 7.40862V6.60562H14.3375V7.40862H15.1405Z" stroke="black"/>
<path d="M12.6125 2.88463H13.8861V2.08063H12.6125V2.18063V2.88463Z" stroke="black"/>
<path d="M26.8125 2.18061V9.08061H26.6125V9.23061H19.7125V9.07761V3.69061V2.03061H26.6125V2.18061H26.8125Z" stroke="black"/>
<path d="M5.36246 9.29163H10.2905V12.7696H5.21246V9.43063H5.36246V9.29163Z" stroke="black"/>
<path d="M12.6125 9.43063H12.3345V12.7696H17.8125V9.33063H16.7625L16.6125 9.43063H16.6095H12.6125Z" stroke="black"/>
<path d="M5.36246 16.2306V16.3696H10.2905V12.8916H5.21246V16.2306H5.36246Z" stroke="black"/>
<path d="M5.36246 16.4916H10.2905V19.9696H5.21246V17.6981V16.6306H5.36246V16.4916Z" stroke="black"/>
<path d="M5.36246 23.4306V23.5696H10.2905V20.0916H5.21246V20.6561V23.4306H5.36246Z" stroke="black"/>
<path d="M5.36246 23.6916H10.2905V27.1696H5.21246V26.5721V23.8306H5.36246V23.6916Z" stroke="black"/>
<path d="M5.36246 30.6306V30.7696H10.2905V27.2916H5.21246V30.6306H5.36246Z" stroke="black"/>
<path d="M5.36246 30.8916H10.2905V34.3696H5.21246V32.9071V31.0306H5.36246V30.8916Z" stroke="black"/>
<path d="M12.6125 30.6306H12.3345V28.3526H17.8125V32.1406H17.6365V32.2806H14.7736H12.3345V31.0306H12.6125V30.6306Z" stroke="black"/>
<path d="M4.8725 20.5886V17.7656H0.9375V20.5886H4.8725Z" stroke="black"/>
<path d="M4.8725 23.5466V20.7236H0.9375V23.5466H4.8725Z" stroke="black"/>
<path d="M4.8725 26.5046V23.6816H0.9375V26.5046H4.8725Z" stroke="black"/>
<path d="M4.8725 32.8396V26.6396H0.9375V32.8396H4.8725Z" stroke="black"/>
<path d="M4.8725 35.7976V32.9746H0.9375V35.7976H4.8725Z" stroke="black"/>
<path d="M5.21246 34.4916V35.8086H10.2905V34.4916H5.21246Z" stroke="black"/>
<path d="M12.3345 32.4026V35.8086H13.0395H13.3881V34.6596H14.5871V32.4306V32.4026H12.3345Z" stroke="black"/>
<path d="M17.4605 34.9806V33.6266V32.5806H14.9601V34.7206V34.9806H16.9105H17.4605Z" stroke="black"/>
<path d="M18.9315 33.5656V35.8086H19.7155H20.2269V33.9086H20.3489V35.8086H22.1482V35.2026V32.4806H17.9825V32.5806H17.8125V33.5656H18.9315Z" stroke="black"/>
<path d="M12.4905 41.9586V39.2556V38.2306H9.43236L9.43246 39.3806H7.87346H5.74946H5.21246V41.9586H12.4905Z" stroke="black"/>
<path d="M12.2125 45.0916V45.4306V52.2306V52.3086H5.36246V52.2306H5.21246V45.4306H5.36246V45.0306H5.21246V42.0806H12.4905V42.9696V45.0306H12.2735H12.2125V45.0916Z" stroke="black"/>
<path d="M15.6875 40.4056V39.5706H12.6125V42.0196V42.9086H15.6875V40.5666V40.4056Z" stroke="black"/>
<path d="M19.7375 38.2306H19.4125H18.1625V40.5056V42.9086H19.4875H21.6125V40.9431V38.2306H19.7375Z" stroke="black"/>
<path d="M19.8125 45.1526H21.0482V58.0056H19.4125V59.6306H12.6125V59.4806H12.2125V59.6306H5.36246V59.4806H5.21246V52.6306H5.36246V52.4306H12.2125V52.6306H12.6125V52.2306H12.3345V45.4306H12.6125V45.1526H19.4125V45.4306H19.8125V45.1526Z" stroke="black"/>
<path d="M19.8125 52.2306H19.4125V52.6306H19.8125V52.2306Z" stroke="black"/>
<path d="M26.9375 45.1526H30.5655V59.6306H27.0125V59.4806H26.6125V59.6306H21.1702V58.0806V45.1526H26.6875V45.6806H26.9375V45.1526Z" stroke="black"/>
<path d="M27.0125 52.2306H26.6125V52.6306H27.0125V52.2306Z" stroke="black"/>
<path d="M27.0125 54.7806H26.6125V55.1806H27.0125V54.7806Z" stroke="black"/>
<path d="M41.1375 52.6306V54.1306V59.6306H41.0325H34.2125V59.4806H33.8125V59.6306H30.6875V45.1526H33.8875V45.6806H34.1375V45.1526H41.0125V45.4306H41.2905V52.2306H41.0125V52.6306H41.1375Z" stroke="black"/>
<path d="M34.2125 52.2306H33.8125V52.6306H34.2125V52.2306Z" stroke="black"/>
<path d="M34.2125 54.7806H33.8125V55.1806H34.2125V54.7806Z" stroke="black"/>
<path d="M55.6125 52.6306V59.4806H55.4625H48.6125H48.2125V59.5806H45.0625V54.0556H44.1125H43.9625V52.6056H45.0625V52.2556H43.9875V50.9556H45.0625V50.9576H55.6125V52.2306H55.4625V52.6306H55.6125Z" stroke="black"/>
<path d="M46.2125 52.2306H45.8125V52.6306H46.2125V52.2306Z" stroke="black"/>
<path d="M45.0425 45.0306H45.0375V45.4306H45.0425V49.2556H43.9875V50.5556H45.0625H55.6125V45.4306H55.4625V45.0306H55.6125V42.6306H52.0235H45.0425V45.0306Z" stroke="black"/>
<path d="M55.6125 38.2306H53.3375V42.4306H55.6125V38.2306Z" stroke="black"/>
<path d="M48.6125 38.2306H48.2625V39.2556V40.371H53.2155V38.2306H48.6125Z" stroke="black"/>
<path d="M39.2125 42.0086H43.2625V40.6196V40.1291H41.2125V40.0071H43.2625V38.2307H41.2125H39.2125V42.0086Z" stroke="black"/>
<path d="M55.4375 31.0306H55.4625V30.6306H55.4375V27.3016H51.0235H49.4625V29.1701V30.8306V32.5751V34.2641V36.5696V37.8306H55.4375V31.0306Z" stroke="black"/>
<path d="M46.3917 35.8086V31.7527H44.9936H43.0125V32.4806H42.3439V33.8386H43.6659V35.8086H46.3917Z" stroke="black"/>
<path d="M42.2219 35.8086V33.8996V32.4806H35.6137V35.8086H40.8521V35.2086H40.9741V35.8086H42.2219Z" stroke="black"/>
<path d="M48.4905 23.8306V24.0991V25.6587L46.3917 25.6586V27.9586H43.0125V20.3526H48.4905V21.5356V22.7671V23.4306H48.2125V23.8306H48.4905Z" stroke="black"/>
<path d="M46.3917 30.7586V28.0806H43.0125V31.6307H44.9186V30.7586H46.3917Z" stroke="black"/>
<path d="M55.6125 23.8306V27.1796H51.0845V23.6916H55.4525L55.4625 23.8306H55.6125Z" stroke="black"/>
<path d="M55.4625 23.5696H51.0845V21.8129V19.1416H55.6125V23.4306H55.4625V23.5696Z" stroke="black"/>
<path d="M55.6125 16.6306V19.0196H51.0845V16.4916H55.4625V16.6306H55.6125Z" stroke="black"/>
<path d="M48.2125 30.7587V30.6306L48.2115 29.1699V27.1796H48.4905V25.7807L46.5137 25.7806V28.0196V30.7586L48.2125 30.7587Z" stroke="black"/>
<path d="M4.87247 59.8206V52.5344H0.808472V59.8206H4.87247Z" stroke="black"/>
<path d="M19.5625 59.4806V58.1556H21.0482V59.6306H19.8125V59.4806H19.5625Z" stroke="black"/>
<path d="M26.7482 32.4806H22.2482V35.1276H26.7482V32.4806Z" stroke="black"/>
<path d="M44.9125 38.2307H43.4125V40.0681V40.5446H44.9125V39.2556V38.2307Z" stroke="black"/>
<path d="M12.2125 31.0306V35.8086H10.4125V7.53063H15.2625V2.08063H16.6625V9.30863H12.6125V9.03063H12.2125V16.6306H12.6125V16.4916H17.8125V28.2306H12.2125V31.0306Z" stroke="black"/>
<path d="M12.6125 23.4306H12.2125V23.8306H12.6125V23.4306Z" stroke="black"/>
<path d="M48.6125 9.4306H48.4114L43.0125 14.313V20.2306H49.2125V20.3526H48.6125V21.4861H49.2125V21.5851H48.6125V22.7176H49.2125V22.8166H48.6125V24.0496H49.2125V24.1486H48.6125V25.6586H49.2125V25.7806H48.6125V27.1796H50.9625V16.3696H55.4625V16.2306H55.6125V9.4306H48.6125Z" stroke="black"/>
<path d="M48.6125 16.2306V16.6306H48.2125V16.2306H48.6125Z" stroke="black"/>
<path d="M49.3405 29.1091V27.3016H48.5515H48.3335V29.1089L49.3405 29.1091Z" stroke="black"/>
<path d="M48.6125 30.6306V30.7696H49.3405V29.2311L48.3335 29.2309V30.6306H48.6125Z" stroke="black"/>
<path d="M48.6125 30.8916H49.3405V32.5141H48.3345V31.0306H48.6125V30.8916Z" stroke="black"/>
<path d="M49.3405 34.2031V32.6361H48.3345V34.2031H49.3405Z" stroke="black"/>
<path d="M49.3405 36.5086V34.3251H48.3345V36.5086H49.3405Z" stroke="black"/>
</svg>
