<svg width="57" height="61" viewBox="0 0 57 61" fill="none" xmlns="http://www.w3.org/2000/svg">
<path d="M53.5057 2H33.2527V4.04H33.1477V9.805H44.8745L53.5057 2Z" stroke="black"/>
<path d="M34.329 3.29001V4.04001H34.079V3.29001H34.329Z" stroke="black"/>
<path d="M48.729 3.29001V4.04001H48.479V3.29001H48.729Z" stroke="black"/>
<path d="M41.529 3.29001V4.04001H41.279V3.29001H41.529Z" stroke="black"/>
<path d="M41.154 9.29001C41.154 9.35631 41.1803 9.4199 41.2272 9.46679C41.2741 9.51367 41.3377 9.54001 41.404 9.54001C41.4703 9.54001 41.5339 9.51367 41.5808 9.46679C41.6277 9.4199 41.654 9.35631 41.654 9.29001C41.654 9.2237 41.6277 9.16012 41.5808 9.11323C41.5339 9.06635 41.4703 9.04001 41.404 9.04001C41.3377 9.04001 41.2741 9.06635 41.2272 9.11323C41.1803 9.16012 41.154 9.2237 41.154 9.29001Z" stroke="black"/>
<path d="M34.204 9.54001C34.2703 9.54001 34.3339 9.51367 34.3808 9.46679C34.4276 9.4199 34.454 9.35631 34.454 9.29001C34.454 9.2237 34.4276 9.16012 34.3808 9.11323C34.3339 9.06635 34.2703 9.04001 34.204 9.04001C34.1377 9.04001 34.0741 9.06635 34.0272 9.11323C33.9803 9.16012 33.954 9.2237 33.954 9.29001C33.954 9.35631 33.9803 9.4199 34.0272 9.46679C34.0741 9.51367 34.1377 9.54001 34.204 9.54001Z" stroke="black"/>
<path d="M54.4715 3.53999L56.059 2.10449V8.98999H55.974H55.654H48.804H48.6259H48.4445L54.0552 3.9164L54.195 3.78999H54.654V3.53999H54.4715Z" stroke="black"/>
<path d="M12.804 2.94402H14.0776V2.14001H12.804V2.24002V2.94402Z" stroke="black"/>
<path d="M5.55399 9.09V9.229H10.482V7.529V2.09H5.55399V2.24H5.40399V9.09H5.55399Z" stroke="black"/>
<path d="M10.604 2.09V7.46799H14.407V6.543H15.332V2.13999H14.2276V3.09399H12.654V2.24H12.404V2.09H10.604Z" stroke="black"/>
<path d="M15.332 7.46801V6.66501H14.529V7.46801H15.332Z" stroke="black"/>
<path d="M12.804 2.94402H14.0776V2.14001H12.804V2.24002V2.94402Z" stroke="black"/>
<path d="M27.004 2.24V9.14H26.804V9.28999H19.904V9.13699V3.74999V2.09H26.804V2.24H27.004Z" stroke="black"/>
<path d="M5.55399 9.35101H10.482V12.829H5.40399V9.49001H5.55399V9.35101Z" stroke="black"/>
<path d="M12.804 9.49001H12.526V12.829H18.004V9.39001H16.954L16.804 9.49001H16.801H12.804Z" stroke="black"/>
<path d="M5.55399 16.29V16.429H10.482V12.951H5.40399V16.29H5.55399Z" stroke="black"/>
<path d="M5.55399 16.551H10.482V20.029H5.40399V17.7575V16.69H5.55399V16.551Z" stroke="black"/>
<path d="M5.55399 23.49V23.629H10.482V20.151H5.40399V20.7155V23.49H5.55399Z" stroke="black"/>
<path d="M5.55399 23.751H10.482V27.229H5.40399V26.6315V23.89H5.55399V23.751Z" stroke="black"/>
<path d="M5.55399 30.69V30.829H10.482V27.351H5.40399V30.69H5.55399Z" stroke="black"/>
<path d="M5.55399 30.951H10.482V34.429H5.40399V32.9665V31.09H5.55399V30.951Z" stroke="black"/>
<path d="M12.804 30.69H12.526V28.412H18.004V32.2H17.828V32.34H14.9651H12.526V31.09H12.804V30.69Z" stroke="black"/>
<path d="M5.06403 20.648V17.825H1.12903V20.648H5.06403Z" stroke="black"/>
<path d="M5.06403 23.606V20.783H1.12903V23.606H5.06403Z" stroke="black"/>
<path d="M5.06403 26.564V23.741H1.12903V26.564H5.06403Z" stroke="black"/>
<path d="M5.06403 32.899V26.699H1.12903V32.899H5.06403Z" stroke="black"/>
<path d="M5.06403 35.857V33.034H1.12903V35.857H5.06403Z" stroke="black"/>
<path d="M5.40399 34.551V35.868H10.482V34.551H5.40399Z" stroke="black"/>
<path d="M12.526 32.462V35.868H13.231H13.5796V34.719H14.7786V32.49V32.462H12.526Z" stroke="black"/>
<path d="M17.652 35.04V33.686V32.64H15.1516V34.78V35.04H17.102H17.652Z" stroke="black"/>
<path d="M19.123 33.625V35.868H19.907H20.4184V33.968H20.5404V35.868H22.3397V35.262V32.54H18.174V32.64H18.004V33.625H19.123Z" stroke="black"/>
<path d="M12.682 42.018V39.315V38.29H9.62389L9.62399 39.44H8.06499H5.94099H5.40399V42.018H12.682Z" stroke="black"/>
<path d="M12.404 45.151V45.49V52.29V52.368H5.55399V52.29H5.40399V45.49H5.55399V45.09H5.40399V42.14H12.682V43.029V45.09H12.465H12.404V45.151Z" stroke="black"/>
<path d="M15.879 40.465V39.63H12.804V42.079V42.968H15.879V40.626V40.465Z" stroke="black"/>
<path d="M19.929 38.29H19.604H18.354V40.565V42.968H19.679H21.804V41.0025V38.29H19.929Z" stroke="black"/>
<path d="M20.004 45.212H21.2397V58.065H19.604V59.69H12.804V59.54H12.404V59.69H5.55399V59.54H5.40399V52.69H5.55399V52.49H12.404V52.69H12.804V52.29H12.526V45.49H12.804V45.212H19.604V45.49H20.004V45.212Z" stroke="black"/>
<path d="M20.004 52.29H19.604V52.69H20.004V52.29Z" stroke="black"/>
<path d="M27.129 45.212H30.757V59.69H27.204V59.54H26.804V59.69H21.3617V58.14V45.212H26.879V45.74H27.129V45.212Z" stroke="black"/>
<path d="M27.204 52.29H26.804V52.69H27.204V52.29Z" stroke="black"/>
<path d="M27.204 54.84H26.804V55.24H27.204V54.84Z" stroke="black"/>
<path d="M41.329 52.69V54.19V59.69H41.224H34.404V59.54H34.004V59.69H30.879V45.212H34.079V45.74H34.329V45.212H41.204V45.49H41.482V52.29H41.204V52.69H41.329Z" stroke="black"/>
<path d="M34.404 52.29H34.004V52.69H34.404V52.29Z" stroke="black"/>
<path d="M34.404 54.84H34.004V55.24H34.404V54.84Z" stroke="black"/>
<path d="M55.804 52.69V59.54H55.654H48.804H48.404V59.64H45.254V54.115H44.304H44.154V52.665H45.254V52.315H44.179V51.015H45.254V51.017H55.804V52.29H55.654V52.69H55.804Z" stroke="black"/>
<path d="M46.404 52.29H46.004V52.69H46.404V52.29Z" stroke="black"/>
<path d="M45.234 45.09H45.229V45.49H45.234V49.315H44.179V50.615H45.254H55.804V45.49H55.654V45.09H55.804V42.69H52.215H45.234V45.09Z" stroke="black"/>
<path d="M55.804 38.29H53.529V42.49H55.804V38.29Z" stroke="black"/>
<path d="M48.804 38.29H48.454V39.315V40.4304H53.407V38.29H48.804Z" stroke="black"/>
<path d="M39.404 42.068H43.454V40.679V40.1885H41.404V40.0665H43.454V38.2901H41.404H39.404V42.068Z" stroke="black"/>
<path d="M55.629 31.09H55.654V30.69H55.629V27.361H51.215H49.654V29.2295V30.89V32.6345V34.3235V36.629V37.89H55.629V31.09Z" stroke="black"/>
<path d="M46.5832 35.868V31.8121H45.1851H43.204V32.54H42.5354V33.898H43.8574V35.868H46.5832Z" stroke="black"/>
<path d="M42.4134 35.868V33.959V32.54H35.8052V35.868H41.0436V35.268H41.1656V35.868H42.4134Z" stroke="black"/>
<path d="M48.682 23.89V24.1585V25.7181L46.5832 25.718V28.018H43.204V20.412H48.682V21.595V22.8265V23.49H48.404V23.89H48.682Z" stroke="black"/>
<path d="M46.5832 30.818V28.14H43.204V31.6901H45.1101V30.818H46.5832Z" stroke="black"/>
<path d="M55.804 23.89V27.239H51.276V23.751H55.644L55.654 23.89H55.804Z" stroke="black"/>
<path d="M55.654 23.629H51.276V21.8723V19.201H55.804V23.49H55.654V23.629Z" stroke="black"/>
<path d="M55.804 16.69V19.079H51.276V16.551H55.654V16.69H55.804Z" stroke="black"/>
<path d="M48.404 30.8181V30.69L48.403 29.2293V27.239H48.682V25.8401L46.7052 25.84V28.079V30.818L48.404 30.8181Z" stroke="black"/>
<path d="M5.064 59.88V52.5938H1V59.88H5.064Z" stroke="black"/>
<path d="M19.754 59.54V58.215H21.2397V59.69H20.004V59.54H19.754Z" stroke="black"/>
<path d="M26.9397 32.54H22.4397V35.187H26.9397V32.54Z" stroke="black"/>
<path d="M45.104 38.2901H43.604V40.1275V40.604H45.104V39.315V38.2901Z" stroke="black"/>
<path d="M12.404 31.09V35.868H10.604V7.59002H15.454V2.14001H16.854V9.36802H12.804V9.09002H12.404V16.69H12.804V16.551H18.004V28.29H12.404V31.09Z" stroke="black"/>
<path d="M12.804 23.49H12.404V23.89H12.804V23.49Z" stroke="black"/>
<path d="M48.804 9.48999H48.6029L43.204 14.3724V20.29H49.404V20.412H48.804V21.5455H49.404V21.6445H48.804V22.777H49.404V22.876H48.804V24.109H49.404V24.208H48.804V25.718H49.404V25.84H48.804V27.239H51.154V16.429H55.654V16.29H55.804V9.48999H48.804Z" stroke="black"/>
<path d="M48.804 16.29V16.69H48.404V16.29H48.804Z" stroke="black"/>
<path d="M49.532 29.1685V27.361H48.743H48.525V29.1683L49.532 29.1685Z" stroke="black"/>
<path d="M48.804 30.69V30.829H49.532V29.2905L48.525 29.2903V30.69H48.804Z" stroke="black"/>
<path d="M48.804 30.951H49.532V32.5735H48.526V31.09H48.804V30.951Z" stroke="black"/>
<path d="M49.532 34.2625V32.6955H48.526V34.2625H49.532Z" stroke="black"/>
<path d="M49.532 36.568V34.3845H48.526V36.568H49.532Z" stroke="black"/>
<path d="M5.55399 2.09H8.96799V6.68999H5.40399V2.24H5.55399V2.09Z" stroke="black"/>
<path d="M12.654 2.24001V2.318V3.10101V6.69H12.6524H12.554H9.08997V2.09L12.404 2.0899V2.24001H12.654Z" stroke="black"/>
<path d="M13.676 3.162H12.776V6.665H15.904V7.515H16.854V2.0899H13.676V2.165V3.162Z" stroke="black"/>
<path d="M5.55399 9.09001H5.40399V6.81201H12.654V7.66501H15.154V30.829H12.804V30.69H12.252V33.849H5.40399V31.09H5.55399V30.69H5.40399V23.89H5.55399V23.49H5.40399V16.69H5.55399V16.29H5.40399V9.44001H5.55399V9.09001Z" stroke="black"/>
<path d="M12.804 16.29H12.404V16.69H12.804V16.29Z" stroke="black"/>
<path d="M12.804 23.49H12.404V23.89H12.804V23.49Z" stroke="black"/>
<path d="M12.804 9.09003H12.404V9.49002H12.804V9.09003Z" stroke="black"/>
<path d="M5.55399 37.89V38.029H9.93199V33.971H5.40399V37.89H5.55399Z" stroke="black"/>
<path d="M12.804 30.951H15.215H15.584V34.996H15.154V36.09H15.957V37.89H12.804H12.526V36.6405H12.804V36.4655H12.465H12.374V33.91V31.258H12.804V30.951Z" stroke="black"/>
<path d="M15.879 39.616H12.665V42.718H15.879V40.7666V40.465V39.616Z" stroke="black"/>
<path d="M19.854 40.765V42.64H18.204H16.001V40.765H16.564V40.365H16.079V39.301V38.09H18.154V40.365H17.964V40.765H18.254H18.354H19.854Z" stroke="black"/>
<path d="M19.854 38.29V40.643H18.354V40.565V38.09H19.604V38.29H19.854Z" stroke="black"/>
<path d="M5.55399 52.29H5.40399V51.412H9.93199V54.768H8.96499H5.40399V52.69H5.55399V52.29Z" stroke="black"/>
<path d="M5.55399 59.54V59.69H8.90399V54.89H5.40399V59.54H5.55399Z" stroke="black"/>
<path d="M13.614 59.69H18.0634V56.212H16.2017H13.614V59.69Z" stroke="black"/>
<path d="M18.0634 56.09V53.86V53.812H16.2627V56.09H18.0634Z" stroke="black"/>
<path d="M46.404 52.7025H55.654V52.69H55.804V59.54H55.654V59.515H48.804V59.54H48.404V59.515H44.385V52.6412H44.404H44.504V52.3912H46.0037V52.49L46.004 52.69L46.404 52.7025Z" stroke="black"/>
<path d="M46.404 52.29H46.1257L46.1256 46.7681H44.326V45.4901L46.004 45.49H46.404H48.743H55.654H55.804V52.29H55.654V52.2775H46.404V52.29Z" stroke="black"/>
<path d="M46.404 45.09V45.368H48.682V41.765H44.326V45.3681L46.004 45.368V45.09H46.404Z" stroke="black"/>
<path d="M45.193 39.362H44.326V41.643H48.682V39.362H48.344H45.193Z" stroke="black"/>
<path d="M55.804 31.09V33.646H50.954V30.812H51.215H55.654V31.09H55.804Z" stroke="black"/>
<path d="M55.804 30.69V28.412H51.276V30.69H55.654H55.804Z" stroke="black"/>
<path d="M48.804 37.89V45.368H55.654V45.09H55.804V38.29H55.654V37.89H55.804V33.768H50.832V30.812H48.804V31.09H48.404V30.69H51.154V28.29H55.804V23.89H55.654V23.49H55.804V16.69H55.654V16.29H55.804V9.48999H55.654V9.09H55.804V6.87999H55.464V2.09H51.27V6.73999H45.065V9.23999H46.054L46.0571 36.029L46.0575 38.115H48.284V37.89H48.804Z" stroke="black"/>
<path d="M48.804 16.29V16.69H48.404V16.29H48.804Z" stroke="black"/>
<path d="M48.804 23.49V23.89H48.404V23.49H48.804Z" stroke="black"/>
<path d="M53.904 3.53998H54.654V3.78998H53.904V3.53998Z" stroke="black"/>
<path d="M48.804 9.09V9.48999H48.404V9.09H48.804Z" stroke="black"/>
<path d="M48.665 3.28999V2.09H51.148V6.618H51.109H48.665V4.03999H48.729V3.28999H48.665Z" stroke="black"/>
<path d="M48.543 4.03999V6.618H45.0284V2.09H48.543V3.28999H48.479V4.03999H48.543Z" stroke="black"/>
<path d="M34.004 9.13998V9.28998H27.204V9.13998H26.804V9.28998H20.144V9.22998H15.276V7.66498H44.815V9.23998H41.554V9.13998H41.254V9.23998H41.044V9.28998H34.404V9.13998H34.004Z" stroke="black"/>
<path d="M41.404 9.46V11.629H45.932V9.362H44.94H41.554H41.404V9.46Z" stroke="black"/>
<path d="M41.404 11.751V14.029H45.932V11.751H41.404Z" stroke="black"/>
<path d="M41.554 16.29V16.429H45.932V14.151H41.404V16.29H41.554Z" stroke="black"/>
<path d="M41.554 16.551H45.932V18.829H41.404V16.69H41.554V16.551Z" stroke="black"/>
<path d="M41.404 18.951V21.229H45.932V18.951H41.404Z" stroke="black"/>
<path d="M41.554 23.49V23.629H45.932V21.351H41.404V23.49H41.554Z" stroke="black"/>
<path d="M41.554 23.751H45.932V26.029H41.404V23.89H41.554V23.751Z" stroke="black"/>
<path d="M41.404 30.74V30.89H41.254V30.74H41.404ZM41.404 30.74H41.554V30.829H41.557H45.1851H45.932V26.151H41.404V30.74Z" stroke="black"/>
<path d="M45.1101 30.951H41.465V33.3291V35.7915H45.935L45.9335 32.8401H45.8027L45.1101 32.8402V30.951Z" stroke="black"/>
<path d="M34.404 30.89H39.682V30.965V33.329V35.418H34.265V31.04H34.404V30.89Z" stroke="black"/>
<path d="M34.143 31.04V35.418H30.665V30.89H34.004V31.04H34.143Z" stroke="black"/>
<path d="M27.204 30.89H30.543V35.418H27.065V31.04H27.204V30.89Z" stroke="black"/>
<path d="M26.943 31.04V35.418H22.0822V33.751V30.89H26.804V31.04H26.943Z" stroke="black"/>
<path d="M21.9602 30.89H20.4602V30.94V33.69H21.9602V30.89Z" stroke="black"/>
<path d="M15.7059 34.9959H16.0179H17.1179H19.9691H20.3381L20.3382 33.7511L20.3383 31.0651H19.9741H19.9541H19.6541L15.7061 31.0649L15.7059 34.9959Z" stroke="black"/>
<path d="M19.604 52.69V44.5938H18.104V42.84H12.543V38.29H12.404V36.553H12.252V33.971H10.054V38.151H5.55399V38.29H5.40399V45.09H5.55399V45.49H5.40399V51.29H10.054V54.89H9.02599V59.69H12.404V59.54H12.804V59.69H13.492V56.09H16.1407V53.812H12.804V53.69H19.604V52.69Z" stroke="black"/>
<path d="M12.804 52.29V52.69H12.404V52.29H12.804Z" stroke="black"/>
<path d="M12.804 45.09V45.49H12.404V45.09H12.804Z" stroke="black"/>
<path d="M19.954 30.815V30.74H19.804V30.815H19.954Z" stroke="black"/>
<path d="M15.276 28.551H19.804V30.74H19.654V30.815H15.645V30.829H15.5824H15.276" stroke="black"/>
<path d="M19.804 28.429V26.151H15.276V28.429H19.804Z" stroke="black"/>
<path d="M19.804 23.89V26.029H15.276V23.751H19.654V23.89H19.804Z" stroke="black"/>
<path d="M19.654 23.629H15.276V20.512H19.804V23.49H19.654V23.629Z" stroke="black"/>
<path d="M19.654 16.429H15.276V14.151H19.804V16.29H19.654V16.429Z" stroke="black"/>
<path d="M19.804 14.029V11.751H15.276V14.029H19.804Z" stroke="black"/>
<path d="M19.804 9.45999V9.35199H15.276V11.629H19.804V9.45999Z" stroke="black"/>
<path d="M27.004 2.24H26.804V2.38999H25.656V2.08969L21.029 2.0898V2.38999H19.904V5.59V7.543H25.407V6.68999H26.082V4.69599H27.004V2.24Z" stroke="black"/>
<path d="M30.603 2.09H27.126V2.24V4.757V6.751V7.543H30.603V2.09Z" stroke="black"/>
<path d="M34.143 4.03999V7.543H30.725V2.09H34.143V3.28999H34.079V4.03999H34.143Z" stroke="black"/>
<path d="M34.265 3.28999V2.09H37.743V7.543H34.265V4.03999H34.329V3.28999H34.265Z" stroke="black"/>
<path d="M41.343 4.03999V7.543H37.865V2.09H41.343V3.28999H41.279V4.03999H41.343Z" stroke="black"/>
<path d="M41.465 3.28999V2.09H44.9064V6.67899V6.689H43.3844V7.543H41.465V4.03999H41.529V3.28999H41.465Z" stroke="black"/>
<path d="M39.804 33.268H41.343V31.043V31.04H41.254H41.234L39.804 31.0401V33.268Z" stroke="black"/>
<path d="M25.529 7.54301H26.804V6.81201H26.143H25.529V7.54301Z" stroke="black"/>
<path d="M19.804 16.69V20.39H15.276V16.551H19.654V16.69H19.804Z" stroke="black"/>
</svg>
