<svg xmlns="http://www.w3.org/2000/svg">
    <defs>
        <marker id="arrowend" markerHeight="7" markerWidth="10" orient="auto" refX="10" refY="3.5">
          <polygon points="0 0, 10 3.5, 0 7" />
        </marker>
        <marker id="arrowstart" markerHeight="7" markerWidth="10" orient="auto" refX="0" refY="3.5">
          <polygon points="10 0, 0 3.5, 10 7" />
        </marker>
    </defs>
    <style type="text/css">
    
        .IfcAnnotation path {
            marker-end: url(#arrowend);
            marker-start: url(#arrowstart);
        }
    
    </style>
    <g class="IfcBuildingStorey" data-guid="2PQVeN4iXEFO1zx0HExF9C" data-name="Level 1" id="storey-9969fa17-12c8-4e3d-807d-ec044eecf24c">
        <g class="IfcSpace" data-guid="0SgqdFEWL29goDQviKNjZ$" data-name="125" id="product-1cab49cf-3a05-4226-ac8d-6b9b145ed8ff-body">
            <path d="M22.3625,-67.9694 L25.7765,-67.9694 L25.7765,-63.3694 L22.2125,-63.3694 L22.2125,-67.8194 L22.3625,-67.8194 L22.3625,-67.9694" style="stroke:black; fill:none;" />
        </g>
        <g class="IfcSpace" data-guid="0SgqdFEWL29goDQviKNjZw" data-name="126" id="product-1cab49cf-3a05-4226-ac8d-6b9b145ed8fa-body">
            <path d="M29.4625,-67.8194 L29.4625,-67.7414 L29.4625,-66.9584 L29.4625,-63.3694 L29.4609,-63.3694 L29.3625,-63.3694 L25.8985,-63.3694 L25.8985,-67.9694 L29.2125,-67.9695 L29.2125,-67.8194 L29.4625,-67.8194" style="stroke:black; fill:none;" />
        </g>
        <g class="IfcSpace" data-guid="0SgqdFEWL29goDQviKNjZv" data-name="127" id="product-1cab49cf-3a05-4226-ac8d-6b9b145ed8f9-body">
            <path d="M30.4845,-66.8974 L29.5845,-66.8974 L29.5845,-63.3944 L32.7125,-63.3944 L32.7125,-62.5444 L33.6625,-62.5444 L33.6625,-67.9695 L30.4845,-67.9695 L30.4845,-67.8944 L30.4845,-66.8974" style="stroke:black; fill:none;" />
        </g>
        <g class="IfcSpace" data-guid="0SgqdFEWL29goDQviKNjZp" data-name="128" id="product-1cab49cf-3a05-4226-ac8d-6b9b145ed8f3-body">
            <path d="M22.3625,-60.9694 L22.2125,-60.9694 L22.2125,-63.2474 L29.4625,-63.2474 L29.4625,-62.3944 L31.9625,-62.3944 L31.9625,-39.2304 L29.6125,-39.2304 L29.6125,-39.3694 L29.0605,-39.3694 L29.0605,-36.2104 L22.2125,-36.2104 L22.2125,-38.9694 L22.3625,-38.9694 L22.3625,-39.3694 L22.2125,-39.3694 L22.2125,-46.1694 L22.3625,-46.1694 L22.3625,-46.5694 L22.2125,-46.5694 L22.2125,-53.3694 L22.3625,-53.3694 L22.3625,-53.7694 L22.2125,-53.7694 L22.2125,-60.6194 L22.3625,-60.6194 L22.3625,-60.9694" style="stroke:black; fill:none;" />
            <path d="M29.6125,-53.7694 L29.2125,-53.7694 L29.2125,-53.3694 L29.6125,-53.3694 L29.6125,-53.7694" style="stroke:black; fill:none;" />
            <path d="M29.6125,-46.5694 L29.2125,-46.5694 L29.2125,-46.1694 L29.6125,-46.1694 L29.6125,-46.5694" style="stroke:black; fill:none;" />
            <path d="M29.6125,-60.9694 L29.2125,-60.9694 L29.2125,-60.5694 L29.6125,-60.5694 L29.6125,-60.9694" style="stroke:black; fill:none;" />
        </g>
        <g class="IfcSpace" data-guid="0SgqdFEWL29goDQviKNjZk" data-name="129" id="product-1cab49cf-3a05-4226-ac8d-6b9b145ed8ee-body">
            <path d="M22.3625,-32.1694 L22.3625,-32.0304 L26.7405,-32.0304 L26.7405,-36.0884 L22.2125,-36.0884 L22.2125,-32.1694 L22.3625,-32.1694" style="stroke:black; fill:none;" />
        </g>
        <g class="IfcSpace" data-guid="0SgqdFEWL29goDQviKNjdp" data-name="130" id="product-1cab49cf-3a05-4226-ac8d-6b9b145ed9f3-body">
            <path d="M29.6125,-39.1084 L32.0235,-39.1084 L32.3925,-39.1084 L32.3925,-35.0634 L31.9625,-35.0634 L31.9625,-33.9694 L32.7655,-33.9694 L32.7655,-32.1694 L29.6125,-32.1694 L29.3345,-32.1694 L29.3345,-33.4189 L29.6125,-33.4189 L29.6125,-33.5939 L29.2735,-33.5939 L29.1825,-33.5939 L29.1825,-36.1494 L29.1825,-38.8014 L29.6125,-38.8014 L29.6125,-39.1084" style="stroke:black; fill:none;" />
        </g>
        <g class="IfcSpace" data-guid="0SgqdFEWL29goDQviKNjdk" data-name="131" id="product-1cab49cf-3a05-4226-ac8d-6b9b145ed9ee-body">
            <path d="M32.6875,-30.4434 L29.4735,-30.4434 L29.4735,-27.3414 L32.6875,-27.3414 L32.6875,-29.2928 L32.6875,-29.5944 L32.6875,-30.4434" style="stroke:black; fill:none;" />
        </g>
        <g class="IfcSpace" data-guid="0SgqdFEWL29goDQviKNjdj" data-name="132" id="product-1cab49cf-3a05-4226-ac8d-6b9b145ed9ed-body">
            <path d="M36.6625,-29.2944 L36.6625,-27.4194 L35.0125,-27.4194 L32.8095,-27.4194 L32.8095,-29.2944 L33.3725,-29.2944 L33.3725,-29.6944 L32.8875,-29.6944 L32.8875,-30.7584 L32.8875,-31.9694 L34.9625,-31.9694 L34.9625,-29.6944 L34.7725,-29.6944 L34.7725,-29.2944 L35.0625,-29.2944 L35.1625,-29.2944 L36.6625,-29.2944" style="stroke:black; fill:none;" />
        </g>
        <g class="IfcSpace" data-guid="0SgqdFEWL29goDQviKNjde" data-name="133" id="product-1cab49cf-3a05-4226-ac8d-6b9b145ed9e8-body">
            <path d="M36.6625,-31.7694 L36.6625,-29.4164 L35.1625,-29.4164 L35.1625,-29.4944 L35.1625,-31.9694 L36.4125,-31.9694 L36.4125,-31.7694 L36.6625,-31.7694" style="stroke:black; fill:none;" />
        </g>
        <g class="IfcSpace" data-guid="0SgqdFEWL29goDQviKNjdd" data-name="134" id="product-1cab49cf-3a05-4226-ac8d-6b9b145ed9e7-body">
            <path d="M22.3625,-17.7694 L22.2125,-17.7694 L22.2125,-18.6474 L26.7405,-18.6474 L26.7405,-15.2914 L25.7735,-15.2914 L22.2125,-15.2914 L22.2125,-17.3694 L22.3625,-17.3694 L22.3625,-17.7694" style="stroke:black; fill:none;" />
        </g>
        <g class="IfcSpace" data-guid="0SgqdFEWL29goDQviKNjdY" data-name="135" id="product-1cab49cf-3a05-4226-ac8d-6b9b145ed9e2-body">
            <path d="M22.3625,-10.5194 L22.3625,-10.3694 L25.7125,-10.3694 L25.7125,-15.1694 L22.2125,-15.1694 L22.2125,-10.5194 L22.3625,-10.5194" style="stroke:black; fill:none;" />
        </g>
        <g class="IfcSpace" data-guid="0SgqdFEWL29goDQviKNjdX" data-name="136" id="product-1cab49cf-3a05-4226-ac8d-6b9b145ed9e1-body">
            <path d="M30.4225,-10.3694 L34.8719,-10.3694 L34.8719,-13.8474 L33.0102,-13.8474 L30.4225,-13.8474 L30.4225,-10.3694" style="stroke:black; fill:none;" />
        </g>
        <g class="IfcSpace" data-guid="0SgqdFEWL29goDQviKNjdS" data-name="137" id="product-1cab49cf-3a05-4226-ac8d-6b9b145ed9dc-body">
            <path d="M34.8719,-13.9694 L34.8719,-16.1994 L34.8719,-16.2474 L33.0712,-16.2474 L33.0712,-13.9694 L34.8719,-13.9694" style="stroke:black; fill:none;" />
        </g>
        <g class="IfcSpace" data-guid="0SgqdFEWL29goDQviKNjdR" data-name="138" id="product-1cab49cf-3a05-4226-ac8d-6b9b145ed9db-body">
            <path d="M63.2125,-17.3569 L72.4625,-17.3569 L72.4625,-17.3694 L72.6125,-17.3694 L72.6125,-10.5194 L72.4625,-10.5194 L72.4625,-10.5444 L65.6125,-10.5444 L65.6125,-10.5194 L65.2125,-10.5194 L65.2125,-10.5444 L61.1935,-10.5444 L61.1935,-17.4182 L61.2125,-17.4182 L61.3125,-17.4182 L61.3125,-17.6682 L62.8122,-17.6682 L62.8122,-17.5694 L62.8125,-17.3694 L63.2125,-17.3569" style="stroke:black; fill:none;" />
        </g>
        <g class="IfcSpace" data-guid="0SgqdFEWL29goDQviKNjdM" data-name="139" id="product-1cab49cf-3a05-4226-ac8d-6b9b145ed9d6-body">
            <path d="M63.2125,-17.7694 L62.9342,-17.7694 L62.9341,-23.2913 L61.1345,-23.2913 L61.1345,-24.5693 L62.8125,-24.5694 L63.2125,-24.5694 L65.5515,-24.5694 L72.4625,-24.5694 L72.6125,-24.5694 L72.6125,-17.7694 L72.4625,-17.7694 L72.4625,-17.7819 L63.2125,-17.7819 L63.2125,-17.7694" style="stroke:black; fill:none;" />
        </g>
        <g class="IfcSpace" data-guid="0SgqdFEWL29goDQviKNjdL" data-name="140" id="product-1cab49cf-3a05-4226-ac8d-6b9b145ed9d5-body">
            <path d="M63.2125,-24.9694 L63.2125,-24.6914 L65.4905,-24.6914 L65.4905,-28.2944 L61.1345,-28.2944 L61.1345,-24.6913 L62.8125,-24.6914 L62.8125,-24.9694 L63.2125,-24.9694" style="stroke:black; fill:none;" />
        </g>
        <g class="IfcSpace" data-guid="0SgqdFEWL29goDQviKNjdG" data-name="141" id="product-1cab49cf-3a05-4226-ac8d-6b9b145ed9d0-body">
            <path d="M62.0015,-30.6974 L61.1345,-30.6974 L61.1345,-28.4164 L65.4905,-28.4164 L65.4905,-30.6974 L65.1525,-30.6974 L62.0015,-30.6974" style="stroke:black; fill:none;" />
        </g>
        <g class="IfcSpace" data-guid="0SgqdFEWL29goDQviKNjdF" data-name="142" id="product-1cab49cf-3a05-4226-ac8d-6b9b145ed9cf-body">
            <path d="M72.6125,-38.9694 L72.6125,-36.4134 L67.7625,-36.4134 L67.7625,-39.2474 L68.0235,-39.2474 L72.4625,-39.2474 L72.4625,-38.9694 L72.6125,-38.9694" style="stroke:black; fill:none;" />
        </g>
        <g class="IfcSpace" data-guid="0SgqdFEWL29goDQviKNjdA" data-name="143" id="product-1cab49cf-3a05-4226-ac8d-6b9b145ed9ca-body">
            <path d="M72.6125,-39.3694 L72.6125,-41.6474 L68.0845,-41.6474 L68.0845,-39.3694 L72.4625,-39.3694 L72.6125,-39.3694" style="stroke:black; fill:none;" />
        </g>
        <g class="IfcSpace" data-guid="0SgqdFEWL29goDQviKNjd9" data-name="144" id="product-1cab49cf-3a05-4226-ac8d-6b9b145ed9c9-body">
            <path d="M65.6125,-32.1694 L65.6125,-24.6914 L72.4625,-24.6914 L72.4625,-24.9694 L72.6125,-24.9694 L72.6125,-31.7694 L72.4625,-31.7694 L72.4625,-32.1694 L72.6125,-32.1694 L72.6125,-36.2914 L67.6405,-36.2914 L67.6405,-39.2474 L65.6125,-39.2474 L65.6125,-38.9694 L65.2125,-38.9694 L65.2125,-39.3694 L67.9625,-39.3694 L67.9625,-41.7694 L72.6125,-41.7694 L72.6125,-46.1694 L72.4625,-46.1694 L72.4625,-46.5694 L72.6125,-46.5694 L72.6125,-53.3694 L72.4625,-53.3694 L72.4625,-53.7694 L72.6125,-53.7694 L72.6125,-60.5694 L72.4625,-60.5694 L72.4625,-60.9694 L72.6125,-60.9694 L72.6125,-63.1794 L72.2725,-63.1794 L72.2725,-67.9694 L68.0785,-67.9694 L68.0785,-63.3194 L61.8735,-63.3194 L61.8735,-60.8194 L62.8625,-60.8194 L62.8656,-34.0304 L62.866,-31.9444 L65.0925,-31.9444 L65.0925,-32.1694 L65.6125,-32.1694" style="stroke:black; fill:none;" />
            <path d="M65.6125,-53.7694 L65.6125,-53.3694 L65.2125,-53.3694 L65.2125,-53.7694 L65.6125,-53.7694" style="stroke:black; fill:none;" />
            <path d="M65.6125,-46.5694 L65.6125,-46.1694 L65.2125,-46.1694 L65.2125,-46.5694 L65.6125,-46.5694" style="stroke:black; fill:none;" />
            <path d="M70.7125,-66.5194 L71.4625,-66.5194 L71.4625,-66.2694 L70.7125,-66.2694 L70.7125,-66.5194" style="stroke:black; fill:none;" />
            <path d="M65.6125,-60.9694 L65.6125,-60.5694 L65.2125,-60.5694 L65.2125,-60.9694 L65.6125,-60.9694" style="stroke:black; fill:none;" />
        </g>
        <g class="IfcSpace" data-guid="0SgqdFEWL29goDQviKNjd4" data-name="145" id="product-1cab49cf-3a05-4226-ac8d-6b9b145ed9c4-body">
            <path d="M65.4735,-66.7694 L65.4735,-67.9694 L67.9565,-67.9694 L67.9565,-63.4414 L67.9175,-63.4414 L65.4735,-63.4414 L65.4735,-66.0194 L65.5375,-66.0194 L65.5375,-66.7694 L65.4735,-66.7694" style="stroke:black; fill:none;" />
        </g>
        <g class="IfcSpace" data-guid="0SgqdFEWL29goDQviKNjd3" data-name="146" id="product-1cab49cf-3a05-4226-ac8d-6b9b145ed9c3-body">
            <path d="M65.3515,-66.0194 L65.3515,-63.4414 L61.8369,-63.4414 L61.8369,-67.9694 L65.3515,-67.9694 L65.3515,-66.7694 L65.2875,-66.7694 L65.2875,-66.0194 L65.3515,-66.0194" style="stroke:black; fill:none;" />
        </g>
        <g class="IfcSpace" data-guid="0SgqdFEWL29goDQviKNjc_" data-name="147" id="product-1cab49cf-3a05-4226-ac8d-6b9b145ed9be-body">
            <path d="M50.8125,-60.9194 L50.8125,-60.7694 L44.0125,-60.7694 L44.0125,-60.9194 L43.6125,-60.9194 L43.6125,-60.7694 L36.9525,-60.7694 L36.9525,-60.8294 L32.0845,-60.8294 L32.0845,-62.3944 L61.6235,-62.3944 L61.6235,-60.8194 L58.3625,-60.8194 L58.3625,-60.9194 L58.0625,-60.9194 L58.0625,-60.8194 L57.8525,-60.8194 L57.8525,-60.7694 L51.2125,-60.7694 L51.2125,-60.9194 L50.8125,-60.9194" style="stroke:black; fill:none;" />
        </g>
        <g class="IfcSpace" data-guid="0SgqdFEWL29goDQviKNjcz" data-name="148" id="product-1cab49cf-3a05-4226-ac8d-6b9b145ed9bd-body">
            <path d="M58.2125,-60.5994 L58.2125,-58.4304 L62.7405,-58.4304 L62.7405,-60.6974 L61.7485,-60.6974 L58.3625,-60.6974 L58.2125,-60.6974 L58.2125,-60.5994" style="stroke:black; fill:none;" />
        </g>
        <g class="IfcSpace" data-guid="0SgqdFEWL29goDQviKNjcu" data-name="149" id="product-1cab49cf-3a05-4226-ac8d-6b9b145ed9b8-body">
            <path d="M58.2125,-58.3084 L58.2125,-56.0304 L62.7405,-56.0304 L62.7405,-58.3084 L58.2125,-58.3084" style="stroke:black; fill:none;" />
        </g>
        <g class="IfcSpace" data-guid="0SgqdFEWL29goDQviKNjct" data-name="150" id="product-1cab49cf-3a05-4226-ac8d-6b9b145ed9b7-body">
            <path d="M58.3625,-53.7694 L58.3625,-53.6304 L62.7405,-53.6304 L62.7405,-55.9084 L58.2125,-55.9084 L58.2125,-53.7694 L58.3625,-53.7694" style="stroke:black; fill:none;" />
        </g>
        <g class="IfcSpace" data-guid="0SgqdFEWL29goDQviKNjco" data-name="151" id="product-1cab49cf-3a05-4226-ac8d-6b9b145ed9b2-body">
            <path d="M58.3625,-53.5084 L62.7405,-53.5084 L62.7405,-51.2304 L58.2125,-51.2304 L58.2125,-53.3694 L58.3625,-53.3694 L58.3625,-53.5084" style="stroke:black; fill:none;" />
        </g>
        <g class="IfcSpace" data-guid="0SgqdFEWL29goDQviKNjcn" data-name="152" id="product-1cab49cf-3a05-4226-ac8d-6b9b145ed9b1-body">
            <path d="M58.2125,-51.1084 L58.2125,-48.8304 L62.7405,-48.8304 L62.7405,-51.1084 L58.2125,-51.1084" style="stroke:black; fill:none;" />
        </g>
        <g class="IfcSpace" data-guid="0SgqdFEWL29goDQviKNjci" data-name="153" id="product-1cab49cf-3a05-4226-ac8d-6b9b145ed9ac-body">
            <path d="M58.3625,-46.5694 L58.3625,-46.4304 L62.7405,-46.4304 L62.7405,-48.7084 L58.2125,-48.7084 L58.2125,-46.5694 L58.3625,-46.5694" style="stroke:black; fill:none;" />
        </g>
        <g class="IfcSpace" data-guid="0SgqdFEWL29goDQviKNjch" data-name="154" id="product-1cab49cf-3a05-4226-ac8d-6b9b145ed9ab-body">
            <path d="M58.3625,-46.3084 L62.7405,-46.3084 L62.7405,-44.0304 L58.2125,-44.0304 L58.2125,-46.1694 L58.3625,-46.1694 L58.3625,-46.3084" style="stroke:black; fill:none;" />
        </g>
        <g class="IfcSpace" data-guid="0SgqdFEWL29goDQviKNjcc" data-name="155" id="product-1cab49cf-3a05-4226-ac8d-6b9b145ed9a6-body">
            <path d="M58.0625,-39.1694 L58.2125,-39.1694 L58.2125,-39.3194 L58.3625,-39.3194 L58.3625,-39.2304 L58.3655,-39.2304 L61.9936,-39.2304 L62.7405,-39.2304 L62.7405,-43.9084 L58.2125,-43.9084 L58.2125,-39.3194 L58.0625,-39.3194 L58.0625,-39.1694" style="stroke:black; fill:none;" />
        </g>
        <g class="IfcSpace" data-guid="0SgqdFEWL29goDQviKNjcb" data-name="156" id="product-1cab49cf-3a05-4226-ac8d-6b9b145ed9a5-body">
            <path d="M61.9186,-39.1084 L58.2735,-39.1084 L58.2735,-36.7303 L58.2735,-34.2679 L62.7435,-34.2679 L62.742,-37.2193 L62.6112,-37.2193 L61.9186,-37.2192 L61.9186,-39.1084" style="stroke:black; fill:none;" />
        </g>
        <g class="IfcSpace" data-guid="0SgqdFEWL29goDQviKNjcW" data-name="157" id="product-1cab49cf-3a05-4226-ac8d-6b9b145ed9a0-body">
            <path d="M51.2125,-39.1694 L56.4905,-39.1694 L56.4905,-39.0944 L56.4905,-36.7304 L56.4905,-34.6414 L51.0735,-34.6414 L51.0735,-39.0194 L51.2125,-39.0194 L51.2125,-39.1694" style="stroke:black; fill:none;" />
        </g>
        <g class="IfcSpace" data-guid="0SgqdFEWL29goDQviKNjcV" data-name="158" id="product-1cab49cf-3a05-4226-ac8d-6b9b145ed99f-body">
            <path d="M50.9515,-39.0194 L50.9515,-34.6414 L47.4735,-34.6414 L47.4735,-39.1694 L50.8125,-39.1694 L50.8125,-39.0194 L50.9515,-39.0194" style="stroke:black; fill:none;" />
        </g>
        <g class="IfcSpace" data-guid="0SgqdFEWL29goDQviKNjcQ" data-name="159" id="product-1cab49cf-3a05-4226-ac8d-6b9b145ed99a-body">
            <path d="M44.0125,-39.1694 L47.3515,-39.1694 L47.3515,-34.6414 L43.8735,-34.6414 L43.8735,-39.0194 L44.0125,-39.0194 L44.0125,-39.1694" style="stroke:black; fill:none;" />
        </g>
        <g class="IfcSpace" data-guid="0SgqdFEWL29goDQviKNjcP" data-name="160" id="product-1cab49cf-3a05-4226-ac8d-6b9b145ed999-body">
            <path d="M43.7515,-39.0194 L43.7515,-34.6414 L38.8907,-34.6414 L38.8907,-36.3084 L38.8907,-39.1694 L43.6125,-39.1694 L43.6125,-39.0194 L43.7515,-39.0194" style="stroke:black; fill:none;" />
        </g>
        <g class="IfcSpace" data-guid="0SgqdFEWL29goDQviKNjcK" data-name="161" id="product-1cab49cf-3a05-4226-ac8d-6b9b145ed994-body">
            <path d="M38.7687,-39.1694 L37.2687,-39.1694 L37.2687,-39.1194 L37.2687,-36.3694 L38.7687,-36.3694 L38.7687,-39.1694" style="stroke:black; fill:none;" />
        </g>
        <g class="IfcSpace" data-guid="0SgqdFEWL29goDQviKNjcJ" data-name="162" id="product-1cab49cf-3a05-4226-ac8d-6b9b145ed993-body">
            <path d="M32.5144,-35.0635 L32.8264,-35.0635 L33.9264,-35.0635 L36.7776,-35.0635 L37.1466,-35.0635 L37.1467,-36.3083 L37.1468,-38.9943 L36.7826,-38.9943 L36.7626,-38.9943 L36.4626,-38.9943 L32.5146,-38.9945 L32.5144,-35.0635" style="stroke:black; fill:none;" />
        </g>
        <g class="IfcSpace" data-guid="0SgqdFEWL29goDQviKNjcE" data-name="163" id="product-1cab49cf-3a05-4226-ac8d-6b9b145ed98e-body">
            <path d="M36.4125,-17.3694 L36.4125,-25.4656 L34.9125,-25.4656 L34.9125,-27.2194 L29.3515,-27.2194 L29.3515,-31.7694 L29.2125,-31.7694 L29.2125,-33.5064 L29.0605,-33.5064 L29.0605,-36.0884 L26.8625,-36.0884 L26.8625,-31.9084 L22.3625,-31.9084 L22.3625,-31.7694 L22.2125,-31.7694 L22.2125,-24.9694 L22.3625,-24.9694 L22.3625,-24.5694 L22.2125,-24.5694 L22.2125,-18.7694 L26.8625,-18.7694 L26.8625,-15.1694 L25.8345,-15.1694 L25.8345,-10.3694 L29.2125,-10.3694 L29.2125,-10.5194 L29.6125,-10.5194 L29.6125,-10.3694 L30.3005,-10.3694 L30.3005,-13.9694 L32.9492,-13.9694 L32.9492,-16.2474 L29.6125,-16.2474 L29.6125,-16.3694 L36.4125,-16.3694 L36.4125,-17.3694" style="stroke:black; fill:none;" />
            <path d="M29.6125,-17.7694 L29.6125,-17.3694 L29.2125,-17.3694 L29.2125,-17.7694 L29.6125,-17.7694" style="stroke:black; fill:none;" />
            <path d="M29.6125,-24.9694 L29.6125,-24.5694 L29.2125,-24.5694 L29.2125,-24.9694 L29.6125,-24.9694" style="stroke:black; fill:none;" />
        </g>
        <g class="IfcSpace" data-guid="0SgqdFEWL29goDQviKNjfv" data-name="164" id="product-1cab49cf-3a05-4226-ac8d-6b9b145eda79-body">
            <path d="M36.7625,-39.2444 L36.7625,-39.3194 L36.6125,-39.3194 L36.6125,-39.2444 L36.7625,-39.2444" style="stroke:black; fill:none;" />
            <path d="M32.0845,-41.5084 L36.6125,-41.5084 L36.6125,-39.3194 L36.4625,-39.3194 L36.4625,-39.2444 L32.4535,-39.2444 L32.4535,-39.2304 L32.3909,-39.2304 L32.0845,-39.2304" style="stroke:black; fill:none;" />
        </g>
        <g class="IfcSpace" data-guid="0SgqdFEWL29goDQviKNjfq" data-name="165" id="product-1cab49cf-3a05-4226-ac8d-6b9b145eda74-body">
            <path d="M36.6125,-41.6304 L36.6125,-43.9084 L32.0845,-43.9084 L32.0845,-41.6304 L36.6125,-41.6304" style="stroke:black; fill:none;" />
        </g>
        <g class="IfcSpace" data-guid="0SgqdFEWL29goDQviKNjfp" data-name="166" id="product-1cab49cf-3a05-4226-ac8d-6b9b145eda73-body">
            <path d="M36.6125,-46.1694 L36.6125,-44.0304 L32.0845,-44.0304 L32.0845,-46.3084 L36.4625,-46.3084 L36.4625,-46.1694 L36.6125,-46.1694" style="stroke:black; fill:none;" />
        </g>
        <g class="IfcSpace" data-guid="0SgqdFEWL29goDQviKNjfk" data-name="167" id="product-1cab49cf-3a05-4226-ac8d-6b9b145eda6e-body">
            <path d="M36.4625,-46.4304 L32.0845,-46.4304 L32.0845,-49.5474 L36.6125,-49.5474 L36.6125,-46.5694 L36.4625,-46.5694 L36.4625,-46.4304" style="stroke:black; fill:none;" />
        </g>
        <g class="IfcSpace" data-guid="0SgqdFEWL29goDQviKNjfj" data-name="168" id="product-1cab49cf-3a05-4226-ac8d-6b9b145eda6d-body">
            <path d="M36.4625,-53.6304 L32.0845,-53.6304 L32.0845,-55.9084 L36.6125,-55.9084 L36.6125,-53.7694 L36.4625,-53.7694 L36.4625,-53.6304" style="stroke:black; fill:none;" />
        </g>
        <g class="IfcSpace" data-guid="0SgqdFEWL29goDQviKNjfe" data-name="169" id="product-1cab49cf-3a05-4226-ac8d-6b9b145eda68-body">
            <path d="M36.6125,-56.0304 L36.6125,-58.3084 L32.0845,-58.3084 L32.0845,-56.0304 L36.6125,-56.0304" style="stroke:black; fill:none;" />
        </g>
        <g class="IfcSpace" data-guid="0SgqdFEWL29goDQviKNjfd" data-name="170" id="product-1cab49cf-3a05-4226-ac8d-6b9b145eda67-body">
            <path d="M36.6125,-60.5994 L36.6125,-60.7074 L32.0845,-60.7074 L32.0845,-58.4304 L36.6125,-58.4304 L36.6125,-60.5994" style="stroke:black; fill:none;" />
        </g>
        <g class="IfcSpace" data-guid="0SgqdFEWL29goDQviKNjfU" data-name="171" id="product-1cab49cf-3a05-4226-ac8d-6b9b145eda5e-body">
            <path d="M43.8125,-67.8194 L43.6125,-67.8194 L43.6125,-67.6694 L42.4645,-67.6694 L42.4645,-67.9697 L37.8375,-67.9696 L37.8375,-67.6694 L36.7125,-67.6694 L36.7125,-64.4694 L36.7125,-62.5164 L42.2155,-62.5164 L42.2155,-63.3694 L42.8905,-63.3694 L42.8905,-65.3634 L43.8125,-65.3634 L43.8125,-67.8194" style="stroke:black; fill:none;" />
        </g>
        <g class="IfcSpace" data-guid="0SgqdFEWL29goDQviKNjfT" data-name="172" id="product-1cab49cf-3a05-4226-ac8d-6b9b145eda5d-body">
            <path d="M47.4115,-67.9694 L43.9345,-67.9694 L43.9345,-67.8194 L43.9345,-65.3024 L43.9345,-63.3084 L43.9345,-62.5164 L47.4115,-62.5164 L47.4115,-67.9694" style="stroke:black; fill:none;" />
        </g>
        <g class="IfcSpace" data-guid="0SgqdFEWL29goDQviKNjfO" data-name="173" id="product-1cab49cf-3a05-4226-ac8d-6b9b145eda58-body">
            <path d="M50.9515,-66.0194 L50.9515,-62.5164 L47.5335,-62.5164 L47.5335,-67.9694 L50.9515,-67.9694 L50.9515,-66.7694 L50.8875,-66.7694 L50.8875,-66.0194 L50.9515,-66.0194" style="stroke:black; fill:none;" />
        </g>
        <g class="IfcSpace" data-guid="0SgqdFEWL29goDQviKNjfN" data-name="174" id="product-1cab49cf-3a05-4226-ac8d-6b9b145eda57-body">
            <path d="M51.0735,-66.7694 L51.0735,-67.9694 L54.5515,-67.9694 L54.5515,-62.5164 L51.0735,-62.5164 L51.0735,-66.0194 L51.1375,-66.0194 L51.1375,-66.7694 L51.0735,-66.7694" style="stroke:black; fill:none;" />
        </g>
        <g class="IfcSpace" data-guid="0SgqdFEWL29goDQviKNjfI" data-name="175" id="product-1cab49cf-3a05-4226-ac8d-6b9b145eda52-body">
            <path d="M58.1515,-66.0194 L58.1515,-62.5164 L54.6735,-62.5164 L54.6735,-67.9694 L58.1515,-67.9694 L58.1515,-66.7694 L58.0875,-66.7694 L58.0875,-66.0194 L58.1515,-66.0194" style="stroke:black; fill:none;" />
        </g>
        <g class="IfcSpace" data-guid="0SgqdFEWL29goDQviKNjfH" data-name="176" id="product-1cab49cf-3a05-4226-ac8d-6b9b145eda51-body">
            <path d="M58.2735,-66.7694 L58.2735,-67.9694 L61.7149,-67.9694 L61.7149,-63.3804 L61.7149,-63.3704 L60.1929,-63.3704 L60.1929,-62.5164 L58.2735,-62.5164 L58.2735,-66.0194 L58.3375,-66.0194 L58.3375,-66.7694 L58.2735,-66.7694" style="stroke:black; fill:none;" />
        </g>
        <g class="IfcSpace" data-guid="0SgqdFEWL29goDQviKNjeb" data-name="177" id="product-1cab49cf-3a05-4226-ac8d-6b9b145eda25-body">
            <path d="M56.6125,-36.7914 L58.1515,-36.7914 L58.1515,-39.0164 L58.1515,-39.0194 L58.0625,-39.0194 L58.0425,-39.0194 L56.6125,-39.0193 L56.6125,-36.7914" style="stroke:black; fill:none;" />
        </g>
        <g class="IfcSpace" data-guid="0uIA2RZfzAPOx771UHFJKO" data-name="185" id="product-3848a09b-8e9f-4a65-8ec7-1c17913d3518-body">
            <path d="M42.3375,-62.5164 L43.6125,-62.5164 L43.6125,-63.2474 L42.9515,-63.2474 L42.3375,-63.2474 L42.3375,-62.5164" style="stroke:black; fill:none;" />
        </g>
        <g class="IfcSpace" data-guid="3NVnV4bn9A4xtP5VE$OofA" data-name="7" id="product-d77f17c4-9712-4a13-bdd9-15f3bf632a4a-body">
            <path d="M36.6125,-53.3694 L36.6125,-49.6694 L32.0845,-49.6694 L32.0845,-53.5084 L36.4625,-53.5084 L36.4625,-53.3694 L36.6125,-53.3694" style="stroke:black; fill:none;" />
        </g>
    </g>
</svg>